<?xml version="1.0" encoding="UTF-8" standalone="no"?>
<svg
   xmlns:dc="http://purl.org/dc/elements/1.1/"
   xmlns:cc="http://creativecommons.org/ns#"
   xmlns:rdf="http://www.w3.org/1999/02/22-rdf-syntax-ns#"
   xmlns:svg="http://www.w3.org/2000/svg"
   xmlns="http://www.w3.org/2000/svg"
   xmlns:xlink="http://www.w3.org/1999/xlink"
   xmlns:sodipodi="http://sodipodi.sourceforge.net/DTD/sodipodi-0.dtd"
   xmlns:inkscape="http://www.inkscape.org/namespaces/inkscape"
   width="1828.6313"
   height="709.58398"
   viewBox="0 0 1828.6314 709.58398"
   version="1.1"
   id="svg11"
   sodipodi:docname="lines2.svg"
   style="fill:none"
   inkscape:version="0.92.1 r15371">
  <metadata
     id="metadata15">
    <rdf:RDF>
      <cc:Work
         rdf:about="">
        <dc:format>image/svg+xml</dc:format>
        <dc:type
           rdf:resource="http://purl.org/dc/dcmitype/StillImage" />
        <dc:title></dc:title>
      </cc:Work>
    </rdf:RDF>
  </metadata>
  <sodipodi:namedview
     pagecolor="#ffffff"
     bordercolor="#666666"
     borderopacity="1"
     objecttolerance="10"
     gridtolerance="10"
     guidetolerance="10"
     inkscape:pageopacity="0"
     inkscape:pageshadow="2"
     inkscape:window-width="1908"
     inkscape:window-height="999"
     id="namedview13"
     showgrid="false"
     fit-margin-top="45"
     fit-margin-left="0"
     fit-margin-right="45"
     fit-margin-bottom="35"
     showguides="false"
     inkscape:zoom="0.35864704"
     inkscape:cx="883.27308"
     inkscape:cy="79.042001"
     inkscape:window-x="0"
     inkscape:window-y="24"
     inkscape:window-maximized="1"
     inkscape:current-layer="svg11"
     inkscape:measure-start="2004.76,462.851"
     inkscape:measure-end="1332.79,454.486">
    <sodipodi:guide
       position="671.32817,469.7368"
       orientation="-0.70710678,0.70710678"
       id="guide4562"
       inkscape:locked="false" />
  </sodipodi:namedview>
  <path
     style="clip-rule:evenodd;fill:url(#linearGradient4504);fill-opacity:0.25;fill-rule:evenodd"
     d="m 848.295,45 c -27.23,0 -49.305,22.0745 -49.305,49.3048 0,27.2303 22.075,49.3048 49.305,49.3048 h 561.315 c 27.23,0 49.31,-22.0745 49.31,-49.3048 C 1458.92,67.0745 1436.84,45 1409.61,45 Z"
     id="path4510"
     inkscape:connector-curvature="0" />
  <path
     style="clip-rule:evenodd;fill:url(#linearGradient4506);fill-opacity:0.25;fill-rule:evenodd"
     d="m 519.305,398.983 c -27.23,0 -49.305,22.075 -49.305,49.305 0,27.23 22.074,49.305 49.305,49.305 H 739.28 c 27.23,0 49.305,-22.075 49.305,-49.305 0,-27.23 -22.075,-49.305 -49.305,-49.305 z"
     id="path4508"
     inkscape:connector-curvature="0" />
  <path
     style="clip-rule:evenodd;fill:url(#linearGradient4508);fill-opacity:0.25;fill-rule:evenodd"
     d="m 273.0727,625.279 c 0,-27.23 22.0745,-49.304 49.3043,-49.304 h 219.976 c 27.23,0 49.304,22.074 49.304,49.304 0,27.231 -22.074,49.305 -49.304,49.305 H 322.377 c -27.2298,0 -49.3043,-22.074 -49.3043,-49.305 z"
     id="path4506"
     inkscape:connector-curvature="0" />
  <path
     style="clip-rule:evenodd;fill:url(#linearGradient4510);fill-opacity:0.25;fill-rule:evenodd"
     d="M 49.305,398.983 C 22.075,398.983 0,421.058 0,448.288 c 0,27.23 22.075,49.305 49.305,49.305 H 269.28 c 27.2303,0 49.305,-22.075 49.305,-49.305 0,-27.23 -22.0747,-49.305 -49.305,-49.305 z"
     id="path4504"
     inkscape:connector-curvature="0" />
  <path
     style="clip-rule:evenodd;fill:url(#linearGradient4512);fill-opacity:0.25;fill-rule:evenodd"
     d="m 466.499,320.601 c 27.23,0 49.305,-22.074 49.305,-49.305 0,-27.23 -22.075,-49.304 -49.305,-49.304 -27.23,0 -49.305,22.074 -49.305,49.304 0,27.231 22.075,49.305 49.305,49.305 z"
     id="path4496"
     inkscape:connector-curvature="0" />
  <path
     style="clip-rule:evenodd;fill:url(#linearGradient4514);fill-opacity:0.25;fill-rule:evenodd"
     d="m 1608.09,94.3048 c 0,27.2303 -22.07,49.3048 -49.3,49.3048 -27.23,0 -49.31,-22.0745 -49.31,-49.3048 0,-27.2303 22.08,-49.3048 49.31,-49.3048 27.23,0 49.3,22.0745 49.3,49.3048 z"
     id="path4494"
     inkscape:connector-curvature="0" />
  <path
     style="clip-rule:evenodd;fill:url(#linearGradient4516);fill-opacity:0.25;fill-rule:evenodd"
     d="m 274.3048,143.6096 c 27.2302,0 49.3052,-22.0745 49.3052,-49.3048 C 323.61,67.0745 301.535,45 274.3048,45 247.0745,45 225,67.0745 225,94.3048 c 0,27.2303 22.0745,49.3048 49.3048,49.3048 z"
     id="path2"
     inkscape:connector-curvature="0" />
  <defs
     id="defs9">
    <linearGradient
       id="paint0_linear"
       x1="694.29498"
       y1="0"
       x2="694.29498"
       y2="629.58398"
       gradientUnits="userSpaceOnUse"
       gradientTransform="translate(199)">
      <stop
         stop-color="#D8D8D8"
         id="stop4" />
      <stop
         offset="1"
         stop-color="#D8D8D8"
         stop-opacity="0.5"
         id="stop6" />
    </linearGradient>
    <linearGradient
       id="paint0_linear-3"
       x1="694.29498"
       y1="0"
       x2="694.29498"
       y2="629.58398"
       gradientUnits="userSpaceOnUse"
       gradientTransform="translate(56.383,221.992)">
      <stop
         stop-color="#D8D8D8"
         id="stop4-6" />
      <stop
         offset="1"
         stop-color="#D8D8D8"
         stop-opacity="0.5"
         id="stop6-7" />
    </linearGradient>
    <linearGradient
       id="paint0_linear-35"
       x1="694.29498"
       y1="0"
       x2="694.29498"
       y2="629.58398"
       gradientUnits="userSpaceOnUse"
       gradientTransform="translate(427.07199,398.8876)">
      <stop
         stop-color="#D8D8D8"
         id="stop4-62" />
      <stop
         offset="1"
         stop-color="#D8D8D8"
         stop-opacity="0.5"
         id="stop6-9" />
    </linearGradient>
    <linearGradient
       id="paint0_linear-2"
       x1="694.29498"
       y1="0"
       x2="694.29498"
       y2="629.58398"
       gradientUnits="userSpaceOnUse"
       gradientTransform="translate(199.26527,575.86718)">
      <stop
         stop-color="#D8D8D8"
         id="stop4-7" />
      <stop
         offset="1"
         stop-color="#D8D8D8"
         stop-opacity="0.5"
         id="stop6-0" />
    </linearGradient>
    <linearGradient
       inkscape:collect="always"
       xlink:href="#paint0_linear"
       id="linearGradient4504"
       gradientUnits="userSpaceOnUse"
       gradientTransform="translate(199,45)"
       x1="694.29498"
       y1="0"
       x2="694.29498"
       y2="629.58398" />
    <linearGradient
       inkscape:collect="always"
       xlink:href="#paint0_linear"
       id="linearGradient4506"
       gradientUnits="userSpaceOnUse"
       gradientTransform="translate(199,45)"
       x1="694.29498"
       y1="0"
       x2="694.29498"
       y2="629.58398" />
    <linearGradient
       inkscape:collect="always"
       xlink:href="#paint0_linear"
       id="linearGradient4508"
       gradientUnits="userSpaceOnUse"
       gradientTransform="translate(199,45)"
       x1="694.29498"
       y1="0"
       x2="694.29498"
       y2="629.58398" />
    <linearGradient
       inkscape:collect="always"
       xlink:href="#paint0_linear"
       id="linearGradient4510"
       gradientUnits="userSpaceOnUse"
       gradientTransform="translate(199,45)"
       x1="694.29498"
       y1="0"
       x2="694.29498"
       y2="629.58398" />
    <linearGradient
       inkscape:collect="always"
       xlink:href="#paint0_linear"
       id="linearGradient4512"
       gradientUnits="userSpaceOnUse"
       gradientTransform="translate(199,45)"
       x1="694.29498"
       y1="0"
       x2="694.29498"
       y2="629.58398" />
    <linearGradient
       inkscape:collect="always"
       xlink:href="#paint0_linear"
       id="linearGradient4514"
       gradientUnits="userSpaceOnUse"
       gradientTransform="translate(199,45)"
       x1="694.29498"
       y1="0"
       x2="694.29498"
       y2="629.58398" />
    <linearGradient
       inkscape:collect="always"
       xlink:href="#paint0_linear"
       id="linearGradient4516"
       gradientUnits="userSpaceOnUse"
       gradientTransform="translate(199,45)"
       x1="694.29498"
       y1="0"
       x2="694.29498"
       y2="629.58398" />
  </defs>
  <path
     inkscape:connector-curvature="0"
     style="clip-rule:evenodd;fill:url(#paint0_linear-3);fill-opacity:0.25;fill-rule:evenodd"
     d="m 705.678,221.992 c -27.23,0 -49.305,22.0745 -49.305,49.3048 0,27.2303 22.075,49.3048 49.305,49.3048 h 1028.6434 c 27.23,0 49.31,-22.0745 49.31,-49.3048 0,-27.2303 -22.08,-49.3048 -49.31,-49.3048 z"
     id="path4510-5"
     sodipodi:nodetypes="sssssss" />
  <path
     inkscape:connector-curvature="0"
     style="clip-rule:evenodd;fill:url(#paint0_linear-35);fill-opacity:0.25;fill-rule:evenodd"
     d="m 1076.367,398.8876 c -27.23,0 -49.305,22.0745 -49.305,49.3048 0,27.2303 22.075,49.3048 49.305,49.3048 h 561.315 c 27.23,0 49.31,-22.0745 49.31,-49.3048 0,-27.2303 -22.08,-49.3048 -49.31,-49.3048 z"
     id="path4510-1" />
  <path
     inkscape:connector-curvature="0"
     style="clip-rule:evenodd;fill:url(#paint0_linear-2);fill-opacity:0.25;fill-rule:evenodd"
     d="m 848.56027,575.86718 c -27.23,0 -49.305,22.0745 -49.305,49.3048 0,27.2303 22.075,49.3048 49.305,49.3048 h 881.69913 c 27.23,0 49.31,-22.0745 49.31,-49.3048 0,-27.2303 -22.08,-49.3048 -49.31,-49.3048 z"
     id="path4510-9"
     sodipodi:nodetypes="sssssss" />
</svg>
