<?xml version="1.0" encoding="UTF-8" standalone="no"?>
<svg
   xmlns:dc="http://purl.org/dc/elements/1.1/"
   xmlns:cc="http://creativecommons.org/ns#"
   xmlns:rdf="http://www.w3.org/1999/02/22-rdf-syntax-ns#"
   xmlns:svg="http://www.w3.org/2000/svg"
   xmlns="http://www.w3.org/2000/svg"
   xmlns:sodipodi="http://sodipodi.sourceforge.net/DTD/sodipodi-0.dtd"
   xmlns:inkscape="http://www.inkscape.org/namespaces/inkscape"
   width="730.83728"
   height="270"
   viewBox="0 0 730.83728 270"
   version="1.1"
   id="svg4"
   sodipodi:docname="lines.svg"
   style="fill:none"
   inkscape:version="0.92.1 r15371">
  <metadata
     id="metadata10">
    <rdf:RDF>
      <cc:Work
         rdf:about="">
        <dc:format>image/svg+xml</dc:format>
        <dc:type
           rdf:resource="http://purl.org/dc/dcmitype/StillImage" />
        <dc:title></dc:title>
      </cc:Work>
    </rdf:RDF>
  </metadata>
  <defs
     id="defs8" />
  <sodipodi:namedview
     pagecolor="#ffffff"
     bordercolor="#666666"
     borderopacity="1"
     objecttolerance="10"
     gridtolerance="10"
     guidetolerance="10"
     inkscape:pageopacity="0"
     inkscape:pageshadow="2"
     inkscape:window-width="1908"
     inkscape:window-height="999"
     id="namedview6"
     showgrid="false"
     inkscape:pagecheckerboard="true"
     fit-margin-top="0"
     fit-margin-left="0"
     fit-margin-right="1"
     fit-margin-bottom="0"
     inkscape:snap-global="true"
     inkscape:object-paths="true"
     inkscape:snap-bbox="true"
     inkscape:bbox-paths="true"
     inkscape:snap-bbox-edge-midpoints="true"
     inkscape:snap-bbox-midpoints="false"
     inkscape:snap-intersection-paths="true"
     inkscape:zoom="1.0703216"
     inkscape:cx="483.21242"
     inkscape:cy="139.62262"
     inkscape:window-x="0"
     inkscape:window-y="24"
     inkscape:window-maximized="1"
     inkscape:current-layer="svg4"
     inkscape:measure-start="197.137,227.711"
     inkscape:measure-end="200.06,194.096" />
  <path
     style="clip-rule:evenodd;fill:#ffffff;fill-opacity:0.4;fill-rule:evenodd"
     d="M 0,21.1446 C 0,9.46675 9.46675,0 21.1446,0 H 261.867 c 11.678,0 21.145,9.46675 21.145,21.1446 0,11.6778 -9.467,21.1446 -21.145,21.1446 H 21.1446 C 9.46678,42.2892 0,32.8224 0,21.1446 Z"
     id="path4545"
     inkscape:connector-curvature="0" />
  <path
     style="clip-rule:evenodd;fill:#ffffff;fill-opacity:0.4;fill-rule:evenodd"
     d="M 342.651,21.1446 C 342.651,9.46675 352.117,0 363.795,0 h 240.723 c 11.678,0 21.145,9.46675 21.145,21.1446 0,11.6778 -9.467,21.1446 -21.145,21.1446 H 363.795 c -11.678,0 -21.144,-9.4668 -21.144,-21.1446 z"
     id="path4543"
     inkscape:connector-curvature="0" />
  <path
     style="clip-rule:evenodd;fill:#ffffff;fill-opacity:0.4;fill-rule:evenodd"
     d="m 303.072,151.807 c -11.678,0 -21.144,9.467 -21.144,21.145 0,11.678 9.466,21.144 21.144,21.144 h 94.338 c 11.677,0 21.144,-9.466 21.144,-21.144 0,-11.678 -9.467,-21.145 -21.144,-21.145 z"
     id="path4541"
     inkscape:connector-curvature="0" />
  <path
     style="clip-rule:evenodd;fill:#ffffff;fill-opacity:0.4;fill-rule:evenodd"
     d="m 117.108,248.855 c 0,-11.677 9.467,-21.144 21.145,-21.144 h 94.337 c 11.678,0 21.145,9.467 21.145,21.144 0,11.678 -9.467,21.145 -21.145,21.145 h -94.337 c -11.678,0 -21.145,-9.467 -21.145,-21.145 z"
     id="path4539"
     inkscape:connector-curvature="0" />
  <path
     style="clip-rule:evenodd;fill:#ffffff;fill-opacity:0.4;fill-rule:evenodd"
     d="M 21.1446,151.807 C 9.46675,151.807 0,161.274 0,172.952 c 0,11.678 9.46675,21.144 21.1446,21.144 h 94.3374 c 11.678,0 21.145,-9.466 21.145,-21.144 0,-11.678 -9.467,-21.145 -21.145,-21.145 z"
     id="path4537"
     inkscape:connector-curvature="0" />
  <path
     style="clip-rule:evenodd;fill:#ffffff;fill-opacity:0.4;fill-rule:evenodd"
     d="m 242.892,97.048295 c 0,-11.677845 9.466,-21.144595 21.144,-21.144595 h 441.9554 c 11.678,0 21.145,9.46675 21.145,21.144595 0,11.677805 -9.467,21.144605 -21.145,21.144605 H 264.036 c -11.678,0 -21.144,-9.4668 -21.144,-21.144605 z"
     id="path4543-3"
     inkscape:connector-curvature="0"
     sodipodi:nodetypes="sssssss" />
  <path
     style="clip-rule:evenodd;fill:#ffffff;fill-opacity:0.4;fill-rule:evenodd"
     d="m 200.06,118.193 c 11.678,0 21.145,-9.467 21.145,-21.1448 0,-11.6778 -9.467,-21.1446 -21.145,-21.1446 -11.678,0 -21.144,9.4668 -21.144,21.1446 0,11.6778 9.466,21.1448 21.144,21.1448 z"
     id="path4529"
     inkscape:connector-curvature="0" />
  <path
     style="clip-rule:evenodd;fill:#ffffff;fill-opacity:0.4;fill-rule:evenodd"
     d="m 689.639,21.1446 c 0,11.6778 -9.467,21.1446 -21.145,21.1446 -11.678,0 -21.145,-9.4668 -21.145,-21.1446 C 647.349,9.46675 656.816,0 668.494,0 c 11.678,0 21.145,9.46675 21.145,21.1446 z"
     id="path4527"
     inkscape:connector-curvature="0" />
  <path
     style="clip-rule:evenodd;fill:#ffffff;fill-opacity:0.4;fill-rule:evenodd"
     d="m 299.819,270 c 11.678,0 21.145,-9.467 21.145,-21.145 0,-11.677 -9.467,-21.144 -21.145,-21.144 -11.678,0 -21.144,9.467 -21.144,21.144 0,11.678 9.466,21.145 21.144,21.145 z"
     id="path2"
     inkscape:connector-curvature="0" />
  <path
     style="clip-rule:evenodd;fill:#ffffff;fill-opacity:0.4;fill-rule:evenodd"
     d="m 440.241,172.9515 c 0,-11.67785 9.466,-21.1446 21.144,-21.1446 h 240.723 c 11.678,0 21.145,9.46675 21.145,21.1446 0,11.6778 -9.467,21.1446 -21.145,21.1446 H 461.385 c -11.678,0 -21.144,-9.4668 -21.144,-21.1446 z"
     id="path4543-6"
     inkscape:connector-curvature="0" />
  <path
     style="clip-rule:evenodd;fill:#ffffff;fill-opacity:0.4;fill-rule:evenodd"
     d="m 342.651,248.855 c 0,-11.67785 9.466,-21.1446 21.144,-21.1446 h 344.8973 c 11.678,0 21.145,9.46675 21.145,21.1446 0,11.6778 -9.467,21.1446 -21.145,21.1446 H 363.795 c -11.678,0 -21.144,-9.4668 -21.144,-21.1446 z"
     id="path4543-2"
     inkscape:connector-curvature="0"
     sodipodi:nodetypes="sssssss" />
</svg>
