<svg width="37" height="41" viewBox="0 0 37 41" fill="none" xmlns="http://www.w3.org/2000/svg">
<path d="M14.4458 26.2544C14.4564 26.2544 14.467 26.2544 14.4776 26.2543C14.4802 26.2543 14.4829 26.2544 14.4857 26.2544H17.1948C17.1954 26.4481 17.1956 26.5626 17.1956 26.598C17.1895 29.3601 17.1901 32.1214 17.195 34.8833C17.1952 35.0783 17.1339 35.1892 16.9563 35.2743C16.0262 35.7229 15.3242 36.8805 15.5157 38.1185C15.7379 39.5568 17.2147 40.6429 18.6399 40.364C19.8954 40.1187 20.7202 39.261 20.8968 37.9416C21.0164 37.0467 20.5862 35.8655 19.436 35.2739C19.2799 35.1942 19.1938 35.1069 19.1944 34.9151C19.2001 32.2324 19.2006 29.5496 19.1944 26.8675C19.1944 26.7813 19.2087 26.7199 19.2368 26.6748V26.2544H22.5456C22.6492 26.2544 22.7522 26.2461 22.8535 26.2298C23.6171 26.1518 24.325 25.8912 24.931 25.4934L29.6888 28.251L29.6701 28.2655C29.797 28.3378 29.9239 28.41 30.0508 28.4821C30.2873 28.616 30.3786 28.7641 30.3716 29.0411C30.3294 30.6464 31.7283 31.9577 33.3593 31.7838C34.9606 31.6135 36.0952 30.0714 35.7237 28.512C35.2785 26.6433 33.2554 25.8001 31.6213 26.8101C31.449 26.9163 31.3245 26.9454 31.1408 26.8377C29.758 26.0294 28.3719 25.2265 26.9801 24.4338C26.9075 24.3926 26.8571 24.3523 26.8252 24.3079L26.3416 24.0282C26.7433 23.3589 26.9737 22.5788 26.9737 21.7456C26.9737 20.0919 26.0695 18.6566 24.7278 17.8721L24.745 17.8621C24.7683 17.8446 24.795 17.8273 24.8252 17.8099C25.4137 17.4727 26.002 17.135 26.5901 16.7968L30.4981 14.5404C30.7141 14.4152 30.9301 14.2899 31.1461 14.1645C31.3155 14.0666 31.4305 14.065 31.5968 14.1767C32.1897 14.5748 32.8544 14.7008 33.5518 14.5786C34.9092 14.3405 35.893 13.1115 35.772 11.6607C35.6404 10.0869 34.0975 8.9104 32.5564 9.25173C31.2041 9.55137 30.3545 10.6088 30.3701 11.999C30.3723 12.2358 30.3066 12.3708 30.0954 12.4917C29.5506 12.8036 29.0061 13.116 28.4619 13.429L28.4623 13.4297L23.481 16.3164C22.6032 14.7779 21.0368 13.671 19.1985 13.3817C19.199 11.043 19.2035 8.70422 19.1909 6.36563C19.1891 6.01474 19.271 5.81137 19.5996 5.62251C20.7779 4.94517 21.2257 3.48705 20.6866 2.24369C20.1429 0.989494 18.7541 0.319499 17.4515 0.716499C16.266 1.07786 15.6051 1.91577 15.4889 3.13524C15.3995 4.07621 15.8444 5.12153 16.9178 5.70849C17.0827 5.79851 17.1976 5.87769 17.1969 6.10402C17.1947 6.79242 17.1931 7.48079 17.192 8.16914H17.2316V13.3899C15.602 13.6603 14.1655 14.5772 13.2549 15.9061C13.0217 15.9574 12.7942 16.0235 12.5734 16.1033C10.5213 14.93 8.47832 13.7403 6.42268 12.5727C6.1144 12.3978 5.96567 12.2102 6.01708 11.8549C6.03765 11.7133 5.99395 11.5615 5.97081 11.4157C5.76021 10.0876 4.46207 8.97672 2.89512 9.23428C1.35792 9.48744 0.38184 10.8792 0.635592 12.369C0.959117 14.2715 3.12905 15.2345 4.76613 14.1938C4.95085 14.0764 5.07864 14.0672 5.26795 14.1776C5.85107 14.5179 6.43506 14.8568 7.01952 15.1949L7.04161 15.1565L10.6874 17.2652C9.68691 18.2141 9.06316 19.5402 9.06316 21.0158C9.06316 22.1563 9.43566 23.2072 10.0665 24.0637L5.81927 26.5159L5.81661 26.4976C5.6105 26.6155 5.4043 26.7331 5.19799 26.8506C5.10582 26.9029 4.92679 26.8921 4.83315 26.8355C4.39267 26.5695 3.92354 26.3927 3.41016 26.379C1.7022 26.3352 0.663501 27.7311 0.605113 28.9438C0.537543 30.3642 1.61168 31.8192 3.34883 31.8062C4.87226 31.7948 6.03159 30.5725 6.01653 29.0476C6.01415 28.7751 6.0942 28.621 6.33308 28.4852C7.50658 27.8167 9.25831 26.8069 11.5883 25.4558C12.4182 25.9623 13.3988 26.2544 14.4458 26.2544ZM34.7214 14.7833C34.5229 14.902 34.454 15.0228 34.4546 15.2492C34.4614 18.7533 34.4608 22.2576 34.4555 25.761C34.4551 25.9715 34.5087 26.0984 34.7017 26.2096C35.9459 26.929 36.5755 28.256 36.352 29.6509C36.1378 30.9876 35.0699 32.0856 33.6865 32.3485C32.8845 32.5015 32.1077 32.3797 31.4048 31.9482C31.1905 31.817 31.0396 31.8402 30.8387 31.9559C27.828 33.7008 24.814 35.4411 21.7965 37.1748C21.5902 37.2936 21.5129 37.4241 21.5134 37.6651C21.5165 39.351 20.216 40.8181 18.5914 40.9816C16.861 41.1563 15.3312 40.0684 14.9573 38.3884C14.9001 38.1301 14.8808 37.86 14.8749 37.5957C14.8705 37.4165 14.8209 37.3069 14.6617 37.2146C11.6026 35.4539 8.54598 33.689 5.49067 31.9215C5.32523 31.8251 5.19524 31.8244 5.02833 31.9254C3.03192 33.1278 0.487417 31.9752 0.0640072 29.7289C-0.203149 28.31 0.374128 26.9832 1.64344 26.2359C1.84394 26.1174 1.93465 25.9981 1.93428 25.7529C1.9251 22.2484 1.92657 18.7447 1.93208 15.2407C1.93226 15.0302 1.87755 14.9056 1.68494 14.7938C0.410667 14.0532 -0.188827 12.7665 0.0559283 11.3218C0.299031 9.88664 1.40823 8.83379 2.85179 8.62803C3.62553 8.51799 4.37173 8.65908 5.04118 9.08676C5.1967 9.18633 5.3122 9.18321 5.47047 9.0919C8.51678 7.32809 11.5655 5.56924 14.6166 3.81443C14.8011 3.70824 14.8731 3.58644 14.8736 3.36893C14.8786 1.43904 16.4027 -0.038371 18.334 0.000759551C19.8392 0.0308882 21.2477 1.27406 21.4613 2.76029C21.4807 2.89697 21.5114 2.98111 21.5114 3.16923C21.5114 3.5813 21.6631 3.75601 21.9836 3.93935C24.9442 5.63427 27.8965 7.34242 30.8468 9.05351C31.0495 9.17145 31.1968 9.17623 31.4079 9.05645C33.4118 7.91285 35.8416 9.00887 36.3294 11.2718C36.3754 11.4824 36.3709 11.7039 36.3869 11.8963C36.3541 13.1808 35.7968 14.1381 34.7214 14.7833ZM32.317 29.0985C32.317 28.6522 32.6374 28.3281 33.0762 28.3291C33.4987 28.3313 33.8588 28.6801 33.863 29.0931C33.8676 29.4907 33.4829 29.8752 33.0825 29.8759C32.6537 29.8759 32.3172 29.5344 32.317 29.0985ZM17.4218 3.32024C17.4234 2.88815 17.7602 2.55472 18.1954 2.55435C18.6312 2.55398 18.9654 2.88668 18.9671 3.32043C18.9682 3.73635 18.6052 4.10414 18.1968 4.09899C17.7817 4.09495 17.4205 3.73157 17.4218 3.32024ZM4.07134 29.1016C4.06969 29.5372 3.73019 29.8794 3.30366 29.8759C2.90063 29.8721 2.52808 29.496 2.52625 29.09C2.52423 28.6844 2.89292 28.3291 3.31596 28.3291C3.75425 28.3294 4.073 28.6552 4.07134 29.1016ZM18.2038 36.9271C18.6386 36.9301 18.9689 37.2609 18.9669 37.6916C18.9641 38.1205 18.6289 38.4437 18.1882 38.4409C17.7512 38.4387 17.417 38.1055 17.4218 37.6761C17.4268 37.2492 17.7673 36.9238 18.2038 36.9271ZM3.32459 12.6678C2.88392 12.6717 2.53947 12.3504 2.52643 11.9244C2.51339 11.5092 2.86189 11.1607 3.29632 11.1544C3.74984 11.1476 4.06492 11.45 4.07134 11.8974C4.07814 12.3469 3.77059 12.6638 3.32459 12.6678ZM33.0667 12.669C32.6212 12.6658 32.3126 12.3484 32.317 11.8988C32.3214 11.4526 32.6374 11.1491 33.0909 11.155C33.5257 11.161 33.8718 11.5064 33.8615 11.9238C33.8512 12.3467 33.5044 12.6721 33.0667 12.669ZM14.4458 24.3842C12.5059 24.3842 10.9333 22.8761 10.9333 21.0158C10.9333 19.163 12.4932 17.6596 14.4222 17.6474C15.0396 16.1978 16.5161 15.1772 18.2392 15.1772C20.4984 15.1772 22.3334 16.9315 22.3645 19.107C22.3669 19.107 22.3692 19.107 22.3716 19.107C23.8804 19.107 25.1035 20.2884 25.1035 21.7456C25.1035 23.136 23.99 24.2753 22.5773 24.3768C22.5678 24.3816 22.557 24.3842 22.5456 24.3842H14.4857C14.484 24.3842 14.4824 24.3842 14.4808 24.384C14.4691 24.3842 14.4574 24.3842 14.4458 24.3842Z" fill="white"/>
</svg>
