<?xml version="1.0" encoding="UTF-8" standalone="no"?>
<svg
   xmlns:dc="http://purl.org/dc/elements/1.1/"
   xmlns:cc="http://creativecommons.org/ns#"
   xmlns:rdf="http://www.w3.org/1999/02/22-rdf-syntax-ns#"
   xmlns:svg="http://www.w3.org/2000/svg"
   xmlns="http://www.w3.org/2000/svg"
   style="fill:none"
   id="svg4"
   version="1.1"
   viewBox="0 0 265.52121 298.82111"
   height="298.82111"
   width="265.52121">
  <metadata
     id="metadata10">
    <rdf:RDF>
      <cc:Work
         rdf:about="">
        <dc:format>image/svg+xml</dc:format>
        <dc:type
           rdf:resource="http://purl.org/dc/dcmitype/StillImage" />
        <dc:title></dc:title>
      </cc:Work>
    </rdf:RDF>
  </metadata>
  <defs
     id="defs8" />
  <g
     transform="translate(-1.2930044,-0.58987)"
     id="Group-74-Copy-2"
     style="fill:#ffffff;fill-rule:nonzero;stroke:none;stroke-width:1">
    <g
       id="Group-73"
       transform="rotate(-180,133.70097,150)">
      <path
         d="m 133.34832,0.58901086 c 13.62919,0 24.7212,10.86298114 25.09013,24.40305314 l 70.62562,40.774873 c 3.67273,-1.988927 7.63478,-2.967593 11.55831,-3.023848 l 0.3881,-0.0026 c 8.66437,0.0099 17.08774,4.510656 21.73156,12.553975 6.81482,11.803625 2.95271,26.841696 -8.58978,33.930936 v 81.54912 c 11.54249,7.08924 15.4046,22.12731 8.58978,33.93094 -4.57451,7.92326 -12.81659,12.40889 -21.34377,12.55053 l -0.38779,0.003 c -4.04997,0.005 -8.1526,-0.97191 -11.94649,-3.02647 l -70.62554,40.7747 c -0.36506,13.40245 -11.23634,24.18202 -24.67506,24.39991 l -0.41507,0.003 c -13.62919,0 -24.72119,-10.86298 -25.09012,-24.40305 L 37.633579,234.23252 c -3.673008,1.98929 -7.635427,2.96813 -11.559309,3.02439 l -0.388106,0.003 c -8.664363,-0.01 -17.0877392,-4.51066 -21.7315518,-12.55397 -6.8146296,-11.80329 -2.95294,-26.84083 8.5887788,-33.93032 v -81.5508 C 1.0016722,102.13533 -2.8600174,87.09779 3.9546122,75.294505 8.5291142,67.371236 16.771199,62.885613 25.298381,62.743973 l 0.387783,-0.0035 c 4.050235,-0.0046 8.153129,0.972032 11.947224,3.026861 L 108.2582,24.992285 c 0.36506,-13.40246 11.23634,-24.18202318 24.67506,-24.39991151 z m 0,261.77018914 -0.32782,0.004 c -0.0147,4e-4 -0.0294,8.2e-4 -0.0441,10e-4 l 0.0442,-10e-4 c -0.10558,0.003 -0.21089,0.007 -0.3159,0.0127 l 0.2717,-0.0114 c -0.1125,0.003 -0.2246,0.008 -0.3363,0.015 l 0.0646,-0.004 c -0.1057,0.006 -0.2111,0.0126 -0.31618,0.021 l 0.25158,-0.0174 c -0.14386,0.008 -0.28704,0.0194 -0.42949,0.0328 l 0.17791,-0.0154 c -0.0881,0.007 -0.17605,0.015 -0.26373,0.0239 l 0.0858,-0.009 c -0.10097,0.01 -0.20157,0.0203 -0.30179,0.0324 l 0.21597,-0.0238 c -0.11142,0.0113 -0.22246,0.0242 -0.33309,0.0386 l 0.11712,-0.0148 c -0.0885,0.0106 -0.17677,0.0222 -0.26469,0.0348 l 0.14757,-0.02 c -0.1166,0.0152 -0.23275,0.032 -0.34843,0.0505 l 0.20086,-0.0305 c -0.10344,0.0148 -0.20645,0.0309 -0.30902,0.0483 l 0.10816,-0.0177 c -0.10001,0.016 -0.19966,0.0333 -0.29894,0.0518 l 0.19078,-0.0341 c -0.10039,0.017 -0.20037,0.0353 -0.2999,0.0548 l 0.10912,-0.0208 c -0.0908,0.0169 -0.18119,0.0348 -0.2713,0.0538 l 0.16218,-0.033 c -0.37714,0.0739 -0.74792,0.16565 -1.11144,0.27417 -0.0307,0.009 -0.0612,0.0181 -0.0917,0.0274 l 0.0917,-0.0274 c -0.0739,0.0221 -0.14757,0.0448 -0.2209,0.0683 l 0.12916,-0.0409 c -0.0924,0.0283 -0.18428,0.0578 -0.27576,0.0883 l 0.1466,-0.0474 c -0.11445,0.0366 -0.22814,0.0749 -0.34106,0.11484 l 0.19446,-0.0674 c -0.0929,0.031 -0.18531,0.0631 -0.27726,0.0963 l 0.0828,-0.0289 c -4.64093,1.64147 -7.9657,6.06808 -7.9657,11.27123 0,6.60101 5.35118,11.95219 11.95219,11.95219 6.60102,0 11.9522,-5.35118 11.9522,-11.95219 0,-4.86519 -2.90688,-9.05143 -7.07857,-10.91667 -0.0143,-0.008 -0.0292,-0.0145 -0.0442,-0.0211 l 0.0442,0.0211 c -0.26317,-0.11767 -0.53138,-0.2261 -0.80421,-0.32489 -0.0278,-0.0108 -0.0555,-0.0207 -0.0832,-0.0304 l 0.0832,0.0304 c -0.092,-0.0333 -0.18448,-0.0655 -0.2775,-0.0966 l 0.19433,0.0662 c -0.11294,-0.0399 -0.22659,-0.0781 -0.34091,-0.11455 l 0.14658,0.0484 c -0.0917,-0.0306 -0.18387,-0.0602 -0.27653,-0.0887 l 0.12995,0.0403 c -0.0668,-0.0213 -0.13385,-0.0421 -0.20111,-0.0623 l 0.0712,0.0219 c -0.34048,-0.10462 -0.68744,-0.19444 -1.04012,-0.26872 -0.0541,-0.0113 -0.10819,-0.0223 -0.16243,-0.0329 l 0.16243,0.0329 c -0.09,-0.0189 -0.18031,-0.0369 -0.27101,-0.0538 l 0.10858,0.0208 c -0.0996,-0.0195 -0.1996,-0.0378 -0.29996,-0.0548 l 0.19138,0.034 c -0.0993,-0.0185 -0.19897,-0.0358 -0.29909,-0.0518 l 0.10771,0.0179 c -0.10246,-0.0174 -0.20531,-0.0334 -0.30851,-0.0482 l 0.2008,0.0303 c -0.11672,-0.0187 -0.234,-0.0357 -0.35182,-0.051 l 0.15102,0.0207 c -0.0865,-0.0123 -0.17327,-0.0238 -0.26027,-0.0342 l 0.10925,0.0135 c -0.10912,-0.0142 -0.2187,-0.0268 -0.32873,-0.038 l 0.21948,0.0245 c -0.10574,-0.0127 -0.21184,-0.0241 -0.31827,-0.034 l 0.0988,0.01 c -0.0867,-0.009 -0.17365,-0.0167 -0.26088,-0.0237 l 0.16209,0.0141 c -0.13716,-0.0128 -0.27488,-0.0233 -0.4131,-0.0315 l 0.25101,0.0173 c -0.10694,-0.009 -0.21427,-0.0157 -0.32198,-0.0214 l 0.071,0.004 c -0.11265,-0.007 -0.22564,-0.0117 -0.33895,-0.0152 l 0.26798,0.0112 c -0.2125,-0.0112 -0.42646,-0.0169 -0.64176,-0.0169 z M 94.494634,180.33046 50.031413,206.00089 c 0.04157,0.16402 0.08141,0.32826 0.119534,0.49269 0.120725,0.52063 0.224308,1.04364 0.310862,1.56781 0.03165,0.19167 0.06107,0.38382 0.08822,0.57609 0.09938,0.70393 0.168248,1.40902 0.207174,2.11378 0.0011,0.0201 0.0022,0.0398 0.0032,0.0595 l -0.0032,-0.0595 c 0.0065,0.11799 0.01219,0.23597 0.01703,0.35394 0.003,0.0741 0.0057,0.14802 0.0081,0.22194 0.02212,0.68833 0.0158,1.3755 -0.01847,2.0601 -0.0028,0.0566 -0.0058,0.11256 -0.009,0.16854 -0.0041,0.0731 -0.0086,0.14643 -0.01345,0.21976 -0.0042,0.0637 -0.0086,0.12729 -0.01325,0.19087 -0.03486,0.47603 -0.08323,0.95052 -0.14495,1.42293 -0.0155,0.11858 -0.03176,0.23655 -0.04886,0.35438 -0.01405,0.0968 -0.02873,0.19398 -0.04397,0.29102 -0.0521,0.33175 -0.110771,0.66211 -0.175979,0.9911 -0.01193,0.0602 -0.0241,0.12046 -0.03649,0.18067 -0.01478,0.0718 -0.02977,0.14309 -0.04508,0.21431 -0.0166,0.0773 -0.0336,0.1546 -0.05096,0.23186 -0.01369,0.0609 -0.02762,0.12185 -0.04178,0.18272 -0.01884,0.081 -0.03804,0.16178 -0.05764,0.24244 -0.01348,0.0555 -0.02713,0.11085 -0.04097,0.16616 -0.0988,0.39498 -0.207167,0.78761 -0.324978,1.17745 -0.01175,0.0389 -0.02353,0.0775 -0.0354,0.11613 -0.02919,0.0949 -0.05891,0.18959 -0.08918,0.28408 -0.01906,0.0595 -0.03843,0.11917 -0.05802,0.17879 -0.02305,0.0701 -0.04639,0.14013 -0.07004,0.21001 -0.01553,0.0459 -0.03112,0.0915 -0.04685,0.13715 -0.0336,0.0975 -0.06774,0.19453 -0.102478,0.29141 -0.01292,0.036 -0.02602,0.0723 -0.0392,0.10854 -0.03269,0.0899 -0.06575,0.17919 -0.09933,0.26833 -0.02018,0.0536 -0.04069,0.10749 -0.0614,0.16135 -0.02483,0.0646 -0.04975,0.12861 -0.07493,0.19254 -0.08433,0.21409 -0.171563,0.42697 -0.26173,0.6387 -0.04579,0.10751 -0.09229,0.21463 -0.139546,0.32145 -0.0091,0.0205 -0.01826,0.0412 -0.02747,0.0619 -0.04318,0.0969 -0.08691,0.19338 -0.131261,0.28962 -0.021,0.0456 -0.04205,0.0909 -0.06324,0.13616 -0.04947,0.10568 -0.09967,0.211 -0.150604,0.31599 -0.006,0.0123 -0.01183,0.0243 -0.01767,0.0363 -0.04786,0.0983 -0.09656,0.19658 -0.145912,0.29461 -0.02665,0.0529 -0.05339,0.10558 -0.08032,0.15814 -0.08319,0.16238 -0.168247,0.32404 -0.255104,0.48483 -0.108922,0.20163 -0.220367,0.40136 -0.33461,0.59967 v 0 l 64.175469,37.05248 v 0 l 0.13213,-0.22565 c 0.009,-0.0148 0.0175,-0.0295 0.0263,-0.0443 0.11243,-0.18884 0.22698,-0.37561 0.34388,-0.56075 0.0353,-0.056 0.0708,-0.1117 0.10656,-0.16729 0.0325,-0.0505 0.0653,-0.10121 0.0983,-0.15178 0.0378,-0.0579 0.0758,-0.11554 0.11397,-0.17304 0.028,-0.0421 0.056,-0.084 0.0842,-0.12588 0.52854,-0.78503 1.10039,-1.5387 1.71204,-2.25745 0.0411,-0.0483 0.082,-0.096 0.12311,-0.14357 0.0409,-0.0473 0.0821,-0.0947 0.12347,-0.14183 0.0454,-0.0517 0.0911,-0.10338 0.13694,-0.15484 0.0436,-0.0489 0.0873,-0.0975 0.13117,-0.14596 0.0415,-0.0458 0.0832,-0.0915 0.12498,-0.13698 0.13856,-0.15074 0.27897,-0.29981 0.42115,-0.44714 0.14069,-0.14578 0.28317,-0.28989 0.42736,-0.43227 0.4671,-0.46126 0.95238,-0.90446 1.45452,-1.32831 0.0632,-0.0534 0.12685,-0.10655 0.19077,-0.15942 0.0366,-0.0303 0.073,-0.0602 0.10951,-0.0901 0.0599,-0.049 0.12022,-0.0979 0.18076,-0.14647 0.0496,-0.0398 0.0993,-0.0794 0.14914,-0.11878 0.0465,-0.0368 0.0932,-0.0734 0.13999,-0.10983 0.06,-0.0467 0.12033,-0.0933 0.18091,-0.1396 0.0475,-0.0363 0.0948,-0.0722 0.14228,-0.10796 0.0631,-0.0475 0.12641,-0.0948 0.18999,-0.14172 0.0387,-0.0286 0.0777,-0.0572 0.11681,-0.0858 0.0805,-0.0587 0.16105,-0.1168 0.24197,-0.1744 0.0272,-0.0194 0.0546,-0.0388 0.082,-0.0581 0.29779,-0.21016 0.60032,-0.41399 0.90743,-0.6113 0.18225,-0.11709 0.36541,-0.23145 0.55012,-0.34349 0.19608,-0.11894 0.39357,-0.23506 0.59276,-0.34853 0.0623,-0.0355 0.12517,-0.0709 0.18823,-0.10616 0.0522,-0.0292 0.10396,-0.0578 0.15579,-0.0863 0.0489,-0.0268 0.0986,-0.0539 0.14836,-0.0808 0.075,-0.0405 0.14964,-0.0804 0.22452,-0.11983 0.0644,-0.034 0.12906,-0.0677 0.1939,-0.10115 0.0337,-0.0174 0.0677,-0.0348 0.10173,-0.0522 0.0834,-0.0426 0.16678,-0.0845 0.25041,-0.12603 0.0626,-0.0311 0.12565,-0.062 0.1888,-0.0927 0.0395,-0.0192 0.0788,-0.0382 0.11822,-0.0571 0.0928,-0.0445 0.18606,-0.0885 0.27958,-0.13189 0.0319,-0.0148 0.0639,-0.0296 0.0959,-0.0443 0.0774,-0.0355 0.15499,-0.0707 0.2328,-0.10544 0.17635,-0.0788 0.35329,-0.15538 0.53128,-0.22999 0.20145,-0.0844 0.40411,-0.1663 0.60805,-0.24555 0.11304,-0.0439 0.22636,-0.087 0.34008,-0.12931 0.32532,-0.12099 0.65357,-0.23533 0.98485,-0.34298 0.0393,-0.0128 0.0786,-0.0254 0.1179,-0.038 0.0803,-0.0256 0.1607,-0.0509 0.24128,-0.0757 0.0545,-0.0168 0.10924,-0.0335 0.16402,-0.0499 0.0877,-0.0264 0.17542,-0.0522 0.26334,-0.0776 0.0395,-0.0114 0.0792,-0.0228 0.11895,-0.034 0.0384,-0.0109 0.0769,-0.0217 0.11531,-0.0324 l -1.6e-4,-48.33768 c -13.7323,-1.69733 -25.52546,-9.87947 -32.110797,-21.45967 z m 75.421516,-1.01963 c -6.14382,11.53837 -17.25389,19.71178 -30.16359,22.09213 l -2.3e-4,48.63317 c 0.0244,0.006 0.0488,0.0129 0.0731,0.0193 0.0266,0.007 0.0537,0.0144 0.0807,0.0217 0.10833,0.0292 0.21597,0.0591 0.32332,0.0896 0.0351,0.01 0.0705,0.0202 0.10588,0.0304 0.0959,0.0277 0.19129,0.0559 0.28642,0.0847 0.0414,0.0125 0.0832,0.0253 0.12484,0.0381 0.0943,0.0291 0.18824,0.0586 0.28191,0.0887 0.0419,0.0135 0.0836,0.027 0.1252,0.0406 0.069,0.0225 0.13828,0.0455 0.20743,0.0688 0.0727,0.0245 0.14497,0.0492 0.21709,0.0742 0.0826,0.0286 0.16472,0.0576 0.24662,0.087 0.0298,0.0107 0.0601,0.0216 0.0904,0.0326 0.08,0.029 0.15933,0.0583 0.23841,0.0879 0.0669,0.0251 0.13392,0.0505 0.20074,0.0762 0.0707,0.0272 0.1415,0.0548 0.21215,0.0827 0.0452,0.0179 0.0904,0.0359 0.13562,0.0541 0.0663,0.0266 0.13201,0.0533 0.19759,0.0804 0.23814,0.0981 0.47443,0.19973 0.70881,0.30484 0.32391,0.14523 0.64423,0.29718 0.96073,0.45562 0.0707,0.0354 0.14148,0.0713 0.21209,0.1075 0.0414,0.0211 0.0826,0.0424 0.12379,0.0638 0.056,0.0291 0.11174,0.0584 0.16737,0.0878 0.0828,0.0437 0.16544,0.0881 0.24783,0.13289 0.0284,0.0155 0.0564,0.0308 0.0845,0.0462 0.0804,0.044 0.16075,0.0887 0.24083,0.1338 0.0475,0.0268 0.0948,0.0537 0.14208,0.0807 0.0756,0.0431 0.1512,0.0869 0.22656,0.13103 0.0381,0.0224 0.0758,0.0446 0.11341,0.0669 0.0866,0.0513 0.17329,0.10335 0.25961,0.15593 0.0238,0.0146 0.0471,0.0288 0.0703,0.0431 0.0661,0.0405 0.13243,0.0816 0.19855,0.12303 0.0779,0.0489 0.15513,0.0979 0.23208,0.14728 0.18242,0.11699 0.36331,0.23644 0.54254,0.35814 0.0266,0.0182 0.0536,0.0366 0.0805,0.055 0.0583,0.0398 0.11604,0.0797 0.17364,0.11985 0.32536,0.22693 0.64533,0.46142 0.95941,0.70319 0.27501,0.21155 0.5449,0.42831 0.81014,0.65045 0.0244,0.0206 0.0488,0.0411 0.0731,0.0617 1.2457,1.05117 2.3877,2.22169 3.40834,3.49376 0.0402,0.0505 0.0804,0.10095 0.12039,0.15161 0.0411,0.0516 0.0818,0.10362 0.12232,0.15575 0.0438,0.0567 0.0876,0.11364 0.13123,0.17077 0.0383,0.0497 0.0759,0.0995 0.11345,0.14934 0.0322,0.0432 0.0646,0.0866 0.0968,0.13005 0.0592,0.0794 0.1176,0.15909 0.1755,0.23911 0.019,0.0267 0.0384,0.0537 0.0578,0.0807 0.47793,0.66551 0.92369,1.35518 1.33551,2.06695 l 64.17569,-37.05208 c -0.11444,-0.19864 -0.22607,-0.39871 -0.33488,-0.60014 -0.0294,-0.0544 -0.0585,-0.10871 -0.0873,-0.16314 -0.0244,-0.046 -0.0485,-0.0918 -0.0725,-0.13766 -0.10798,-0.20653 -0.21292,-0.41426 -0.3149,-0.62329 -0.0135,-0.0275 -0.0269,-0.0552 -0.0402,-0.0828 -0.11346,-0.23473 -0.22316,-0.47097 -0.32912,-0.70874 -0.023,-0.0517 -0.0456,-0.1029 -0.0681,-0.1542 -0.096,-0.21938 -0.18893,-0.44023 -0.27865,-0.66228 l -0.0104,-0.0259 c -0.0282,-0.0701 -0.0562,-0.14031 -0.0838,-0.21064 -0.0211,-0.0538 -0.0419,-0.10745 -0.0626,-0.16121 -0.0786,-0.20449 -0.15456,-0.40996 -0.22779,-0.61634 -0.0141,-0.0397 -0.0283,-0.0801 -0.0424,-0.12049 -0.0268,-0.0767 -0.053,-0.15301 -0.0789,-0.22942 -0.0751,-0.22192 -0.14711,-0.44487 -0.216,-0.66876 -0.0125,-0.0408 -0.0248,-0.0811 -0.037,-0.1215 -0.0596,-0.19721 -0.11686,-0.39541 -0.17168,-0.59427 -0.0686,-0.24899 -0.13334,-0.49861 -0.19421,-0.74917 -0.0525,-0.21595 -0.1021,-0.43269 -0.14888,-0.65009 -0.009,-0.0432 -0.0184,-0.0862 -0.0275,-0.1293 -0.0781,-0.37261 -0.14791,-0.74734 -0.20917,-1.12363 -0.0425,-0.26111 -0.0809,-0.52276 -0.11517,-0.78505 -0.0618,-0.47274 -0.11013,-0.94723 -0.14499,-1.42321 -0.005,-0.064 -0.009,-0.12837 -0.0134,-0.19277 -0.005,-0.0728 -0.009,-0.14552 -0.0134,-0.21825 -0.003,-0.0561 -0.006,-0.11208 -0.009,-0.16811 -0.0118,-0.236 -0.0203,-0.47222 -0.0255,-0.70867 -0.005,-0.25028 -0.007,-0.5011 -0.005,-0.7521 5e-4,-0.0602 0.001,-0.12041 0.002,-0.18065 9.3e-4,-0.0603 0.002,-0.12033 0.003,-0.18034 0.002,-0.0792 0.004,-0.15864 0.007,-0.23807 0.002,-0.0734 0.005,-0.1468 0.008,-0.22019 0.003,-0.0658 0.006,-0.13149 0.009,-0.19719 0.004,-0.0923 0.01,-0.18456 0.0151,-0.27685 0.003,-0.0582 0.007,-0.11648 0.0111,-0.17477 0.002,-0.0287 0.004,-0.0573 0.006,-0.0859 l 0.0113,-0.15387 c 0.0505,-0.65883 0.12731,-1.31753 0.2308,-1.97454 0.0149,-0.0948 0.0305,-0.18988 0.0465,-0.28486 0.0101,-0.0594 0.0204,-0.11904 0.0309,-0.17866 0.008,-0.0453 0.0161,-0.0903 0.0243,-0.13532 0.0218,-0.11952 0.0446,-0.23928 0.0683,-0.35896 7.6e-4,-0.004 0.001,-0.008 0.002,-0.0112 l -0.002,0.0112 c 0.0676,-0.34178 0.14252,-0.68291 0.22483,-1.02315 z M 19.715409,201.80479 c -5.716645,3.30051 -7.675312,10.61035 -4.374805,16.327 3.300506,5.71664 10.610351,7.67531 16.326996,4.3748 4.502954,-2.59978 6.674239,-7.68719 5.780178,-12.52409 -0.0088,-0.051 -0.01854,-0.10165 -0.02862,-0.15227 l 0.02862,0.15227 c -0.01843,-0.0997 -0.03815,-0.19926 -0.05919,-0.2987 l 0.03057,0.14643 c -0.02266,-0.11386 -0.04701,-0.2275 -0.07305,-0.34087 l 0.04248,0.19444 c -0.02153,-0.1018 -0.04444,-0.20346 -0.06872,-0.30496 l 0.02624,0.11052 c -0.02365,-0.10297 -0.0487,-0.20573 -0.07514,-0.30825 l 0.0489,0.19773 c -0.02637,-0.11023 -0.05436,-0.22026 -0.08399,-0.33007 l 0.03509,0.13234 c -0.0279,-0.10818 -0.05736,-0.2161 -0.08838,-0.32372 l 0.05329,0.19138 c -0.02695,-0.0999 -0.05525,-0.19956 -0.0849,-0.29904 l 0.03161,0.10766 c -0.09855,-0.34191 -0.212822,-0.68081 -0.3429,-1.01569 -0.02316,-0.06 -0.04687,-0.11958 -0.07108,-0.17907 l 0.07108,0.17907 c -0.04515,-0.11624 -0.09221,-0.232 -0.141168,-0.34723 l 0.07008,0.16816 c -0.03418,-0.084 -0.06939,-0.16772 -0.105625,-0.25123 l 0.03554,0.0831 c -0.04773,-0.11234 -0.09728,-0.22418 -0.148636,-0.33547 l 0.113095,0.2524 c -0.04823,-0.11115 -0.09828,-0.22187 -0.150153,-0.33214 l 0.03706,0.0797 c -0.04785,-0.10369 -0.09727,-0.20691 -0.148275,-0.30963 l 0.111217,0.22989 c -0.04562,-0.097 -0.09266,-0.19357 -0.141115,-0.2898 l 0.0299,0.0599 c -0.112103,-0.22579 -0.231829,-0.44915 -0.359203,-0.66977 -0.162919,-0.28219 -0.33599,-0.55578 -0.518579,-0.82049 -0.03802,-0.0553 -0.0767,-0.11037 -0.115784,-0.16505 l 0.115784,0.16505 c -0.05932,-0.086 -0.119648,-0.17106 -0.180957,-0.25518 l 0.06517,0.0901 c -0.06663,-0.0932 -0.134415,-0.18526 -0.203321,-0.27607 l 0.138148,0.18594 c -0.05818,-0.0798 -0.117237,-0.15877 -0.177165,-0.23687 l 0.03902,0.0509 c -0.05441,-0.0717 -0.109517,-0.14264 -0.16531,-0.21282 l 0.126293,0.16189 c -0.07453,-0.0971 -0.150394,-0.19291 -0.227566,-0.28734 l 0.101273,0.12545 c -0.06313,-0.0794 -0.127129,-0.15784 -0.191986,-0.23528 l 0.09071,0.10983 c -0.07462,-0.0913 -0.150463,-0.18136 -0.227492,-0.27013 l 0.136779,0.1603 c -0.06527,-0.0779 -0.131396,-0.15488 -0.198368,-0.23082 l 0.06159,0.0705 c -0.07578,-0.0873 -0.152706,-0.17342 -0.230751,-0.25825 l 0.169162,0.18773 c -0.07196,-0.0816 -0.144884,-0.16203 -0.218756,-0.2413 l 0.04959,0.0536 c -0.132539,-0.14407 -0.268304,-0.28451 -0.407142,-0.42127 -3.734708,-3.67568 -9.598138,-4.57301 -14.357345,-1.82528 z m 213.671661,1.13692 -0.21231,0.17895 c -0.0242,0.021 -0.0483,0.0421 -0.0723,0.0632 l 0.0727,-0.0628 c -0.12255,0.10623 -0.24319,0.21519 -0.36181,0.32687 -0.11268,0.10575 -0.22356,0.21441 -0.33246,0.32539 -0.11226,0.11445 -0.22287,0.23175 -0.33135,0.3516 -0.0274,0.0304 -0.0547,0.0608 -0.0818,0.0915 l 0.0818,-0.0915 c -0.0655,0.0724 -0.13019,0.14565 -0.19411,0.21986 l 0.11228,-0.12841 c -0.15139,0.17084 -0.29833,0.34655 -0.44059,0.52701 -0.0233,0.0294 -0.0467,0.0594 -0.07,0.0895 l 0.07,-0.0895 c -0.056,0.0711 -0.11137,0.14291 -0.16594,0.21547 l 0.0959,-0.12599 c -0.0672,0.087 -0.13339,0.17503 -0.19851,0.26425 l 0.10259,-0.13826 c -0.29076,0.38656 -0.56048,0.79383 -0.80697,1.22075 -0.10872,0.1883 -0.21186,0.37861 -0.30945,0.57072 -0.0265,0.0521 -0.0524,0.10398 -0.0779,0.156 l 0.0779,-0.156 c -0.0533,0.10502 -0.10505,0.21057 -0.15508,0.31663 l 0.0772,-0.16063 c -0.052,0.10619 -0.10237,0.21282 -0.15098,0.31987 l 0.0738,-0.15924 c -0.0464,0.0983 -0.0913,0.19707 -0.13487,0.29622 l 0.0611,-0.13698 c -0.0414,0.0912 -0.0816,0.18271 -0.12054,0.27449 l 0.0595,-0.13751 c -0.0531,0.12093 -0.10407,0.24246 -0.15293,0.36454 l 0.0935,-0.22703 c -0.0427,0.10059 -0.0839,0.20151 -0.12359,0.30274 l 0.0301,-0.0757 c -0.0335,0.0837 -0.066,0.16768 -0.0975,0.2519 l 0.0674,-0.17619 c -0.0434,0.11066 -0.0851,0.22169 -0.12497,0.33305 l -0.10451,0.30476 c -0.0336,0.10251 -0.0659,0.20532 -0.0966,0.30842 -0.0107,0.036 -0.0213,0.072 -0.0316,0.10802 l 0.0316,-0.10802 c -0.0296,0.0993 -0.0579,0.19881 -0.0849,0.29858 l 0.0533,-0.19056 c -0.031,0.10781 -0.0605,0.21585 -0.0883,0.3241 l 0.0351,-0.13354 c -0.0297,0.10976 -0.0577,0.21982 -0.0842,0.33013 l 0.0491,-0.19659 c -0.0264,0.10252 -0.0514,0.20522 -0.0749,0.30807 l 0.0258,-0.11148 c -0.0243,0.10143 -0.0473,0.20308 -0.0689,0.30492 l 0.0431,-0.19344 c -0.026,0.11346 -0.0503,0.2271 -0.0728,0.3409 l 0.0298,-0.14746 c -0.0211,0.0995 -0.0409,0.1992 -0.0594,0.29905 l 0.0297,-0.15159 c -0.96832,4.88193 1.20104,10.04887 5.75111,12.67585 5.71664,3.30051 13.02649,1.34184 16.32699,-4.3748 3.30051,-5.71665 1.34185,-13.02649 -4.3748,-16.327 -4.44628,-2.56706 -9.85635,-1.95264 -13.59417,1.13692 z m -9.88126,-97.09502 -28.47395,16.43836 c 4.84144,5.9605 7.74295,13.56028 7.74295,21.83774 0,12.4568 -6.57118,23.37881 -16.43625,29.48874 l 36.58903,21.12325 c 0.56452,-0.5867 1.15408,-1.14189 1.76597,-1.66483 0.36724,-0.31385 0.74241,-0.61601 1.12503,-0.9064 0.1174,-0.0891 0.23556,-0.17714 0.35441,-0.26407 0.38536,-0.28186 0.77846,-0.55237 1.17819,-0.81098 l 0.0125,-0.008 c 0.0732,-0.0473 0.14654,-0.0942 0.22014,-0.14062 0.34237,-0.21618 0.68968,-0.42385 1.04136,-0.62277 0.13326,-0.0754 0.26762,-0.14977 0.4026,-0.22288 0.1785,-0.0967 0.3577,-0.19096 0.53792,-0.28302 l 0.0161,-0.008 c 0.37275,-0.19005 0.74986,-0.3706 1.13093,-0.54154 0.38804,-0.17405 0.78007,-0.3381 1.17579,-0.49207 l 0.0198,-0.008 c 0.0355,-0.0138 0.0711,-0.0275 0.10672,-0.0411 0.16629,-0.0637 0.33294,-0.12547 0.50019,-0.18549 0.14461,-0.0519 0.28989,-0.10254 0.43561,-0.15185 0.18024,-0.061 0.36099,-0.11988 0.54236,-0.17672 0.0329,-0.0103 0.0655,-0.0205 0.0981,-0.0305 0.23481,-0.0725 0.47095,-0.14172 0.70804,-0.20744 l 0.0236,-0.007 c 0.0743,-0.0205 0.14864,-0.0407 0.22309,-0.0605 0.19476,-0.0519 0.39009,-0.10139 0.58599,-0.14858 0.49021,-0.11806 0.98415,-0.22148 1.48098,-0.31005 0.33433,-0.0596 0.67006,-0.11247 1.00689,-0.15856 0.0531,-0.007 0.10569,-0.0143 0.15828,-0.0211 0.22614,-0.0295 0.45291,-0.0559 0.6801,-0.0793 l 0.0299,-0.003 c 0.023,-0.002 0.046,-0.005 0.069,-0.007 0.25661,-0.0254 0.51374,-0.0468 0.77128,-0.0643 0.2333,-0.0158 0.46683,-0.0284 0.70063,-0.0377 0.0507,-0.002 0.10116,-0.004 0.1516,-0.006 0.0113,-3.9e-4 0.0233,-7.8e-4 0.0353,-0.001 0.26324,-0.009 0.52615,-0.0129 0.78927,-0.0132 l -0.0565,1e-4 0.0511,-1.1e-4 0.005,1e-5 v -74.10382 c -0.26579,-2.5e-4 -0.53136,-0.005 -0.79661,-0.0134 -0.35727,-0.0117 -0.71374,-0.031 -1.06937,-0.0578 -0.80911,-0.0611 -1.61381,-0.16113 -2.4112,-0.29946 -0.83874,-0.14549 -1.66991,-0.33344 -2.48956,-0.56285 -0.22249,-0.0623 -0.44391,-0.12753 -0.66441,-0.19582 -0.30967,-0.0959 -0.61791,-0.19791 -0.92415,-0.30585 -0.25498,-0.0899 -0.50894,-0.18401 -0.7614,-0.28225 -0.84333,-0.32827 -1.66687,-0.70072 -2.46975,-1.11749 -0.69317,-0.3598 -1.37146,-0.75297 -2.03171,-1.17854 -0.0505,-0.0326 -0.10093,-0.0653 -0.15122,-0.0982 -0.40419,-0.26466 -0.80145,-0.54152 -1.19121,-0.83044 -0.10754,-0.0797 -0.21483,-0.16058 -0.32154,-0.24238 -0.31977,-0.24514 -0.63385,-0.49819 -0.94233,-0.75939 -0.30383,-0.25725 -0.60234,-0.52252 -0.89509,-0.79561 -0.12764,-0.11908 -0.25429,-0.23973 -0.37981,-0.36188 z m -180.77208,0.43368 -0.216293,0.19772 c -0.246845,0.22299 -0.497613,0.44054 -0.752113,0.65261 l -0.0087,0.007 c -0.275046,0.22897 -0.554446,0.45153 -0.837959,0.66762 -0.263866,0.2011 -0.530859,0.39629 -0.80121,0.58585 -0.266485,0.18683 -0.535871,0.36794 -0.808327,0.54355 -0.115395,0.0744 -0.231961,0.14815 -0.349069,0.22092 -0.391772,0.24346 -0.790286,0.47605 -1.19436,0.69723 -0.130416,0.0714 -0.261442,0.1416 -0.39303,0.21062 -0.282116,0.14798 -0.566874,0.29049 -0.854037,0.42747 -0.311431,0.14854 -0.625443,0.29046 -0.942054,0.42582 -0.575883,0.24621 -1.160448,0.47072 -1.752258,0.67314 -0.343338,0.11743 -0.68884,0.22734 -1.036513,0.32976 -0.04926,0.0145 -0.09915,0.029 -0.149092,0.0434 -0.0837,0.0241 -0.166781,0.0476 -0.249982,0.0706 -0.02701,0.007 -0.055,0.0152 -0.08302,0.0228 -0.142127,0.0388 -0.283759,0.0762 -0.425708,0.1123 -0.701079,0.17843 -1.410052,0.32678 -2.124664,0.44445 -0.228312,0.0376 -0.456942,0.072 -0.686078,0.1033 -0.04511,0.006 -0.09011,0.0122 -0.135127,0.0181 -0.239988,0.0315 -0.480864,0.0595 -0.722202,0.0841 -0.01043,0.001 -0.02142,0.002 -0.03242,0.003 -0.271709,0.0273 -0.543474,0.0501 -0.815706,0.0686 -0.233413,0.0158 -0.467488,0.0284 -0.701837,0.0377 -0.04707,0.002 -0.09475,0.004 -0.142449,0.005 -0.01643,5.6e-4 -0.03207,0.001 -0.04771,0.002 -0.259195,0.008 -0.519377,0.0126 -0.779776,0.0129 l 0.05465,-0.001 -0.04987,0.001 -0.0048,-1e-5 v 74.10382 c 0.265747,2.6e-4 0.531269,0.005 0.796462,0.0134 0.346015,0.0113 0.691846,0.0298 1.036889,0.0554 0.71094,0.0527 1.418947,0.13564 2.121613,0.2482 0.722896,0.11581 1.440169,0.26299 2.149618,0.44098 0.603878,0.15148 1.202593,0.32544 1.794288,0.5214 0.919941,0.30466 1.8228,0.66243 2.703651,1.072 0.499237,0.23211 0.991696,0.48103 1.476158,0.74635 0.0321,0.0176 0.06401,0.0351 0.09588,0.0528 l -0.09588,-0.0528 c 0.264565,0.1449 0.526744,0.29469 0.786389,0.44933 0.144011,0.0858 0.287267,0.17305 0.429717,0.26182 l 0.358825,0.22785 c 0.119641,0.0774 0.238687,0.15587 0.357123,0.2354 0.148945,0.10004 0.295248,0.20058 0.440576,0.30275 0.321768,0.22621 0.638603,0.4603 0.950344,0.70229 0.173159,0.13444 0.343395,0.27021 0.51203,0.40837 0.68673,0.56263 1.346691,1.16463 1.97644,1.80519 L 88.87651,168.39246 C 74.455559,166.58043 63.264972,154.38725 63.024122,139.53229 v 0 l -0.004,-0.48918 c 0,-6.74907 2.260166,-12.97024 6.06489,-17.94792 L 42.996709,106.03356 c -0.08714,0.083 -0.174799,0.16525 -0.262979,0.24681 z m 92.1608,16.32848 H 92.601832 c -9.076393,0 -16.434263,7.35786 -16.434263,16.43426 0,9.07639 7.35787,16.43426 16.434529,16.43426 v 0 l 9.054462,3.7e-4 0.48627,6.0465 c 1.24208,15.44479 14.18565,27.44506 29.783,27.44506 12.45934,0 23.47715,-7.69582 27.88847,-19.12582 v 0 l 1.62362,-4.20687 6.67553,1.2e-4 c 11.88183,0 21.51395,-9.63212 21.51395,-21.51394 0,-11.88182 -9.63212,-21.51394 -21.51395,-21.51394 v 0 h -32.13333 c -0.14606,0 -0.28875,10e-4 -0.42831,0.004 v 0 l -0.14132,0.003 -0.32847,-0.006 z m 20.19405,-84.3679 -0.13179,0.225058 c -0.0719,0.12126 -0.14471,0.241862 -0.21854,0.361797 -0.11403,0.185248 -0.23036,0.368834 -0.34899,0.550786 -0.0396,0.06075 -0.0791,0.120741 -0.11882,0.18055 -0.0348,0.05241 -0.0701,0.105039 -0.10551,0.157532 -0.10947,0.162126 -0.22074,0.322844 -0.33382,0.482186 -0.29843,0.42049 -0.60945,0.83137 -0.93255,1.232111 -0.13296,0.164912 -0.26787,0.327995 -0.40478,0.489326 -0.0463,0.05459 -0.0926,0.108624 -0.13906,0.162457 -0.13092,0.151645 -0.26352,0.301588 -0.39787,0.449918 -0.0419,0.04621 -0.0835,0.09187 -0.12534,0.137367 -0.15019,0.163392 -0.3029,0.325186 -0.45772,0.484928 -0.12883,0.132925 -0.25915,0.264469 -0.39091,0.394566 -0.47684,0.470816 -0.97203,0.922336 -1.48474,1.353712 -0.0368,0.03097 -0.0741,0.06214 -0.11142,0.0932 -0.0526,0.04377 -0.10531,0.08721 -0.15816,0.130438 -0.17259,0.141165 -0.34693,0.27995 -0.52314,0.41644 -0.0346,0.02682 -0.0696,0.05379 -0.1047,0.08066 -0.0553,0.04239 -0.11036,0.0842 -0.16557,0.125788 -0.0627,0.04726 -0.12608,0.09451 -0.18966,0.141472 -0.039,0.02882 -0.078,0.05746 -0.11714,0.086 -0.0802,0.05849 -0.16072,0.116558 -0.24164,0.174154 -0.0275,0.0196 -0.0549,0.039 -0.0823,0.05835 -0.1928,0.136071 -0.38789,0.269688 -0.58495,0.400596 -0.28678,0.190522 -0.57769,0.375287 -0.87257,0.554151 -0.19579,0.118755 -0.39327,0.234877 -0.59246,0.348351 -0.0599,0.03413 -0.12014,0.06812 -0.18053,0.101858 -0.0546,0.0305 -0.10898,0.06063 -0.16349,0.09056 -0.0492,0.02699 -0.0988,0.05405 -0.14864,0.08095 -0.0781,0.04219 -0.15617,0.08384 -0.23448,0.12508 -0.0446,0.02347 -0.0893,0.04683 -0.13401,0.07005 -0.0629,0.03266 -0.12592,0.06501 -0.18908,0.0971 -0.0784,0.03984 -0.15704,0.07929 -0.23592,0.118334 -0.0217,0.01075 -0.0437,0.0216 -0.0657,0.03241 -0.0902,0.04432 -0.1805,0.08802 -0.2711,0.131182 -0.16873,0.08039 -0.33835,0.158893 -0.50899,0.235544 -0.19127,0.08592 -0.38394,0.169566 -0.57783,0.250847 -0.21647,0.09074 -0.43458,0.17858 -0.65419,0.263417 -0.0977,0.03774 -0.19566,0.07488 -0.29392,0.111422 -0.1854,0.06895 -0.37179,0.135751 -0.55918,0.200398 -0.061,0.02105 -0.1219,0.04179 -0.18289,0.0623 -0.0781,0.02628 -0.15678,0.05229 -0.23558,0.07793 -0.0418,0.01359 -0.0834,0.02701 -0.12508,0.04032 -0.0801,0.02559 -0.16051,0.05083 -0.2411,0.07567 -0.0547,0.01686 -0.10941,0.03352 -0.16419,0.05 -0.0875,0.02632 -0.17524,0.05218 -0.26316,0.07757 -0.0397,0.01146 -0.0794,0.02282 -0.11912,0.03408 -0.0939,0.02661 -0.18814,0.05272 -0.2826,0.07829 -0.0477,0.01292 -0.0951,0.02559 -0.14248,0.03812 -0.009,0.0024 -0.0187,0.0049 -0.0284,0.0075 l -0.001,59.497244 28.36174,4.2e-4 c 5.78601,0 11.24089,1.41771 16.03622,3.92471 l 32.6569,-18.854145 c -0.16632,-0.600216 -0.30933,-1.203742 -0.42935,-1.809353 -0.002,-0.0091 -0.004,-0.01846 -0.005,-0.02779 -0.0224,-0.113587 -0.0439,-0.227005 -0.0646,-0.340487 -0.0165,-0.09031 -0.0325,-0.180975 -0.048,-0.271676 -0.002,-0.01429 -0.005,-0.02827 -0.007,-0.04224 l 0.007,0.04224 c -0.0489,-0.285453 -0.0926,-0.571272 -0.13142,-0.85733 -0.0652,-0.480909 -0.11615,-0.962447 -0.15308,-1.444057 l -0.0113,-0.153871 c -0.003,-0.04095 -0.006,-0.0819 -0.008,-0.122858 -0.006,-0.08532 -0.0107,-0.170578 -0.0155,-0.255837 -0.003,-0.0572 -0.006,-0.114545 -0.009,-0.171885 -0.004,-0.07668 -0.007,-0.153407 -0.0101,-0.230121 -0.002,-0.06212 -0.005,-0.124164 -0.007,-0.186199 -0.003,-0.09784 -0.006,-0.195608 -0.008,-0.293358 -0.001,-0.0691 -0.002,-0.138433 -0.003,-0.207756 -6.3e-4,-0.05377 -0.001,-0.107316 -0.001,-0.160856 l 0.001,0.160856 c -0.004,-0.322121 -0.001,-0.643969 0.007,-0.965364 0.005,-0.20165 0.0133,-0.403603 0.0236,-0.605331 0.003,-0.06107 0.006,-0.122131 0.01,-0.183165 0.003,-0.05974 0.007,-0.119431 0.0111,-0.179098 0.005,-0.07455 0.0101,-0.148925 0.0156,-0.223261 0.0417,-0.559604 0.10204,-1.117495 0.18086,-1.672336 0.0276,-0.194054 0.0573,-0.386954 0.0892,-0.579442 0.0586,-0.353541 0.12477,-0.705615 0.19834,-1.056049 0.009,-0.04077 0.0173,-0.08179 0.0261,-0.122801 0.0703,-0.326561 0.14694,-0.651442 0.23001,-0.974665 0.0778,-0.302942 0.16148,-0.604909 0.2507,-0.905244 0.0143,-0.04824 0.0287,-0.09623 0.0433,-0.144186 0.0108,-0.03566 0.0219,-0.07172 0.033,-0.10776 0.0686,-0.222292 0.14008,-0.44325 0.21464,-0.663216 0.0247,-0.07298 0.0498,-0.145947 0.0753,-0.218805 0.0144,-0.0413 0.0288,-0.082 0.0432,-0.122666 0.0833,-0.234762 0.1704,-0.468959 0.26096,-0.701881 0.009,-0.02421 0.0189,-0.04857 0.0285,-0.07292 l -0.0285,0.07292 c 0.0652,-0.167728 0.13223,-0.334795 0.20105,-0.501168 0.075,-0.181196 0.15221,-0.361975 0.23161,-0.541887 0.0205,-0.04637 0.0412,-0.09309 0.0622,-0.139759 0.0982,-0.218774 0.19935,-0.436025 0.3037,-0.651897 0.0165,-0.03415 0.033,-0.06815 0.0496,-0.10211 0.10907,-0.223061 0.22158,-0.444792 0.33744,-0.664944 0.0253,-0.048 0.0507,-0.09596 0.0763,-0.143847 0.0328,-0.06138 0.066,-0.122837 0.0994,-0.184167 0.0936,-0.171678 0.18934,-0.34242 0.28711,-0.512121 v 0 z m -43.48097,-7.92e-4 -64.175688,37.052091 c 0.09777,0.169701 0.193485,0.340443 0.287145,0.512185 0.03341,0.06127 0.06659,0.122723 0.09952,0.184306 0.02549,0.04768 0.05093,0.09565 0.07621,0.143683 0.115841,0.220113 0.228355,0.441844 0.3375,0.665068 0.0188,0.03844 0.03757,0.07709 0.05625,0.115784 0.03539,0.07333 0.07034,0.146641 0.104918,0.22011 0.02566,0.05451 0.05133,0.109547 0.07679,0.164664 0.03321,0.07189 0.06585,0.143441 0.09815,0.215133 0.17071,0.378862 0.331897,0.761624 0.483469,1.147925 0.0096,0.02447 0.01912,0.04883 0.02859,0.07321 l -0.02859,-0.07321 c 0.03553,0.09055 0.07053,0.181283 0.104995,0.272212 0.03674,0.09692 0.07295,0.194252 0.108556,0.291789 0.01483,0.04062 0.02931,0.08062 0.04369,0.120651 0.02521,0.07017 0.05038,0.141219 0.07523,0.212377 0.02564,0.07342 0.05074,0.146388 0.07551,0.219468 0.01107,0.03266 0.02211,0.06544 0.03308,0.09824 0.03409,0.101959 0.06769,0.204599 0.100616,0.307445 0.01654,0.05164 0.03289,0.103289 0.04908,0.154987 0.02199,0.07023 0.04362,0.140381 0.06494,0.210624 0.159606,0.525769 0.302122,1.057075 0.427172,1.592571 0.01689,0.07234 0.03353,0.145017 0.04984,0.217773 0.0088,0.03942 0.01757,0.07878 0.0262,0.118171 0.01592,0.07265 0.03153,0.145409 0.04682,0.218242 0.01736,0.08269 0.03437,0.165767 0.05095,0.248928 0.01125,0.0564 0.02229,0.112756 0.03314,0.169153 0.0078,0.04041 0.01544,0.08082 0.02302,0.121248 0.02136,0.11403 0.04201,0.228663 0.06187,0.343446 0.02943,0.170087 0.05709,0.340357 0.08301,0.510928 0.01217,0.08011 0.02398,0.160384 0.03539,0.240718 l -0.03539,-0.240718 c 0.09639,0.634369 0.168653,1.272923 0.216387,1.914202 0.0055,0.07397 0.01071,0.148345 0.01559,0.222752 0.0039,0.05981 0.0076,0.119501 0.0111,0.179211 0.0036,0.06107 0.0069,0.122123 0.01002,0.1832 0.03513,0.688564 0.04198,1.379749 0.02008,2.071757 -0.002,0.06208 -0.0042,0.124126 -0.0066,0.186173 -0.003,0.07679 -0.0064,0.153511 -0.01007,0.230238 -0.0024,0.04864 -0.0048,0.09733 -0.0075,0.146018 -0.03856,0.711589 -0.107663,1.423686 -0.207822,2.134186 -0.02737,0.194123 -0.05702,0.387944 -0.089,0.581605 -0.04165,0.252208 -0.08725,0.504237 -0.136827,0.755909 -0.0019,0.0096 -0.0037,0.01891 -0.0056,0.02824 -0.01788,0.09023 -0.03631,0.180612 -0.05526,0.270947 -0.113533,0.541292 -0.245553,1.080912 -0.396262,1.617839 -0.01375,0.04898 -0.02756,0.0976 -0.04152,0.146191 l 0.04152,-0.146191 c -0.01665,0.0593 -0.03352,0.118576 -0.05062,0.177814 l 30.237517,17.456979 c 3.809122,-1.78663 8.061508,-2.785 12.547075,-2.785 v 0 l 34.002879,-4.2e-4 6.2e-4,-59.588887 c -0.0464,-0.01292 -0.0928,-0.02596 -0.13911,-0.03914 -0.0349,-0.0099 -0.0699,-0.01996 -0.10488,-0.03009 -0.0959,-0.02775 -0.1913,-0.05595 -0.28642,-0.08471 -0.0415,-0.01253 -0.0832,-0.02526 -0.12485,-0.0381 -0.0914,-0.02816 -0.18242,-0.05676 -0.2732,-0.08587 -0.0628,-0.02014 -0.12558,-0.04054 -0.18823,-0.06118 -0.0496,-0.01634 -0.0993,-0.03288 -0.14889,-0.04957 -0.0706,-0.02377 -0.14092,-0.04776 -0.21106,-0.07206 -0.0884,-0.03062 -0.17674,-0.06179 -0.26486,-0.09343 -0.0272,-0.0098 -0.0548,-0.01973 -0.0824,-0.02974 -0.0755,-0.0274 -0.15018,-0.05494 -0.22472,-0.08282 -0.17938,-0.06708 -0.35822,-0.136337 -0.53606,-0.207567 l -0.0805,-0.0324 c -0.0478,-0.01935 -0.0956,-0.03884 -0.14325,-0.05847 -0.20175,-0.08308 -0.40218,-0.168718 -0.60124,-0.256864 -0.23214,-0.102786 -0.46314,-0.20933 -0.69221,-0.319248 -0.0509,-0.02442 -0.10174,-0.04903 -0.15247,-0.07379 -0.18913,-0.09233 -0.37704,-0.187032 -0.56359,-0.284006 -0.0715,-0.03716 -0.14256,-0.07455 -0.21345,-0.112271 -0.0564,-0.03002 -0.11244,-0.06011 -0.16834,-0.09041 -0.0569,-0.03083 -0.11396,-0.06205 -0.17089,-0.09348 -0.0585,-0.03227 -0.11675,-0.06476 -0.1749,-0.09747 -0.0648,-0.03645 -0.12949,-0.07322 -0.194,-0.110274 -0.0476,-0.02736 -0.0949,-0.05473 -0.14213,-0.08225 -0.0577,-0.03361 -0.1153,-0.06753 -0.1728,-0.101683 -0.0721,-0.0428 -0.14411,-0.08607 -0.21591,-0.129682 -0.0483,-0.02936 -0.0964,-0.05876 -0.14428,-0.08832 -0.0474,-0.02922 -0.0947,-0.05865 -0.14198,-0.08822 -0.0718,-0.04493 -0.14303,-0.09004 -0.21405,-0.135505 -0.19101,-0.122263 -0.38084,-0.247436 -0.56884,-0.375094 -0.0267,-0.0181 -0.0536,-0.03648 -0.0806,-0.05492 -0.0757,-0.05184 -0.1508,-0.103865 -0.2256,-0.156284 -0.20885,-0.146369 -0.41565,-0.296047 -0.62005,-0.448768 -0.1448,-0.108191 -0.28829,-0.217829 -0.43055,-0.328967 l -0.0465,-0.0364 c -0.0542,-0.04253 -0.10818,-0.08528 -0.162,-0.128249 -0.15276,-0.121953 -0.30396,-0.245572 -0.45369,-0.370905 -0.0428,-0.03582 -0.0855,-0.07184 -0.12814,-0.107993 -0.0508,-0.04306 -0.10109,-0.08611 -0.15124,-0.129354 -0.0586,-0.05054 -0.11738,-0.10166 -0.17588,-0.153047 -0.0478,-0.04202 -0.0955,-0.08418 -0.14294,-0.126513 -0.0345,-0.03075 -0.0688,-0.06151 -0.10301,-0.09237 -0.27603,-0.248897 -0.54651,-0.50384 -0.81122,-0.764616 -0.0368,-0.03627 -0.0737,-0.07279 -0.1104,-0.109435 -0.0293,-0.02919 -0.0594,-0.05936 -0.0894,-0.08962 -0.14844,-0.149539 -0.29496,-0.300882 -0.43958,-0.454045 l -0.0316,-0.03349 c -0.35658,-0.379033 -0.7015,-0.769154 -1.0342,-1.16979 -0.0417,-0.05027 -0.0837,-0.101223 -0.1255,-0.152344 -0.0483,-0.05907 -0.0959,-0.117843 -0.1432,-0.176835 -0.0379,-0.04722 -0.0758,-0.09484 -0.11357,-0.142595 -0.0461,-0.05827 -0.092,-0.116892 -0.13765,-0.175723 -0.0367,-0.04724 -0.0728,-0.09414 -0.10878,-0.14116 -0.0261,-0.03413 -0.0523,-0.0686 -0.0785,-0.103147 L 113.2186,40.68398 c -0.0134,-0.01792 -0.0267,-0.03586 -0.04,-0.05382 -0.13578,-0.182994 -0.26887,-0.36754 -0.3995,-0.553943 -0.10626,-0.151643 -0.21057,-0.304036 -0.31322,-0.457625 -0.0439,-0.06564 -0.0875,-0.131602 -0.13086,-0.197786 -0.0654,-0.09994 -0.13014,-0.200299 -0.19414,-0.301145 -0.18355,-0.289215 -0.36134,-0.582435 -0.53322,-0.879504 z m 123.42144,39.253247 c -4.50296,2.599781 -6.67424,7.68719 -5.78018,12.524098 0.009,0.04988 0.0181,0.09954 0.028,0.149171 l -0.028,-0.149171 c 0.0184,0.09968 0.0382,0.199256 0.0592,0.2987 l -0.0312,-0.149529 c 0.021,0.105511 0.0434,0.210831 0.0673,0.315933 l -0.0361,-0.166404 c 0.0215,0.101799 0.0444,0.203461 0.0687,0.304961 l -0.0326,-0.138557 c 0.0238,0.104965 0.0491,0.209711 0.0759,0.314211 l -0.0432,-0.175654 c 0.0252,0.105209 0.0518,0.210243 0.08,0.315075 l -0.0367,-0.139421 c 0.0296,0.115552 0.0609,0.230803 0.094,0.345714 l -0.0573,-0.206293 c 0.0282,0.104888 0.0578,0.209573 0.0889,0.314026 l -0.0316,-0.107733 c 0.0476,0.165168 0.0989,0.329635 0.15383,0.493286 0.0306,0.09144 0.0627,0.183248 0.0959,0.274823 0.0331,0.09082 0.0674,0.181833 0.10287,0.272545 l -0.10287,-0.272545 c 0.044,0.121189 0.0901,0.241976 0.13825,0.362314 l -0.0354,-0.08977 c 0.0364,0.09311 0.074,0.185914 0.11289,0.27838 l -0.0775,-0.188611 c 0.05,0.124823 0.10219,0.249163 0.15668,0.372969 l -0.0792,-0.184358 c 0.044,0.104603 0.0895,0.208778 0.13657,0.312492 l -0.0574,-0.128134 c 0.0422,0.09592 0.0858,0.191527 0.13074,0.286786 l -0.0733,-0.158652 c 0.0486,0.107106 0.0989,0.213722 0.15092,0.319812 l -0.0776,-0.16116 c 0.045,0.09529 0.0913,0.190235 0.139,0.284811 l -0.0614,-0.123651 c 0.0458,0.09343 0.0929,0.186463 0.14125,0.27906 l -0.0798,-0.155409 c 0.0494,0.09791 0.10024,0.195424 0.15258,0.292516 l 0.1732,0.310365 c 0.21586,0.373872 0.44954,0.732673 0.69956,1.075688 0.0352,0.04855 0.0711,0.09703 0.10734,0.145163 L 231.3538,94.89609 c 0.0666,0.09133 0.13429,0.181534 0.20315,0.270608 l -0.0958,-0.125445 c 0.0547,0.07272 0.11011,0.144672 0.16622,0.215843 l -0.0704,-0.0904 c 0.13718,0.177462 0.27885,0.350429 0.42479,0.518794 0.0214,0.02477 0.0431,0.04966 0.065,0.07444 l -0.065,-0.07444 c 0.0607,0.07006 0.1222,0.139334 0.18439,0.207797 l -0.11941,-0.133352 c 0.13042,0.147923 0.26404,0.292051 0.40069,0.432338 0.11578,0.119077 0.23433,0.235864 0.35507,0.349939 0.0987,0.09272 0.19883,0.184049 0.30033,0.273476 0.0237,0.02159 0.0478,0.04267 0.0719,0.06364 l -0.0719,-0.06364 c 0.15974,0.140732 0.32281,0.27676 0.48898,0.408024 0.014,0.0123 0.0284,0.02359 0.0427,0.03484 l -0.0427,-0.03484 c 3.72875,2.945358 9.0237,3.492068 13.38945,0.971493 5.71665,-3.300506 7.67531,-10.610351 4.3748,-16.326996 -3.3005,-5.716645 -10.61035,-7.675313 -16.32699,-4.374806 z M 15.340604,81.868211 c -3.300507,5.716645 -1.34184,13.02649 4.374805,16.326996 4.759207,2.747733 10.622637,1.850403 14.357595,-1.825781 0.121541,-0.11946 0.240967,-0.242267 0.357925,-0.367864 0.02715,-0.02914 0.05479,-0.05911 0.08229,-0.08924 l -0.08229,0.08924 c 0.07388,-0.07934 0.146772,-0.159783 0.218655,-0.241333 l -0.136363,0.152093 c 0.07143,-0.07825 0.141948,-0.157609 0.211531,-0.238064 l -0.07517,0.08597 c 0.06668,-0.07565 0.132495,-0.152244 0.197418,-0.229777 l -0.12225,0.143806 c 0.07229,-0.08359 0.143572,-0.168361 0.213812,-0.254312 l -0.09156,0.110506 c 0.06494,-0.07755 0.128987,-0.156043 0.192126,-0.235462 l -0.100564,0.124956 c 0.07703,-0.09425 0.152803,-0.189925 0.22729,-0.287002 l -0.126726,0.162046 c 0.05946,-0.07479 0.118115,-0.15041 0.175944,-0.226842 l -0.04922,0.0648 c 0.05995,-0.07813 0.119065,-0.157174 0.177325,-0.237122 l -0.128107,0.172326 c 0.07709,-0.101889 0.152715,-0.205226 0.226834,-0.309991 l -0.09873,0.137665 c 0.06126,-0.08406 0.121568,-0.169119 0.18091,-0.255174 l -0.08218,0.117509 c 0.212915,-0.300952 0.413402,-0.613692 0.6005,-0.937755 0.05947,-0.103001 0.117268,-0.206601 0.173404,-0.310767 0.01345,-0.02492 0.027,-0.05027 0.04045,-0.07565 l -0.04045,0.07565 c 0.05347,-0.09921 0.105419,-0.198929 0.155866,-0.299132 l -0.115418,0.223485 c 0.05335,-0.10067 0.105112,-0.201785 0.155303,-0.303314 l -0.03988,0.07983 c 0.04836,-0.09606 0.09533,-0.192555 0.140921,-0.289472 l -0.101036,0.209643 c 0.0515,-0.104184 0.101347,-0.208805 0.149543,-0.313832 l -0.04851,0.104189 c 0.05,-0.106291 0.09833,-0.213085 0.145008,-0.320347 l -0.0965,0.216158 c 0.05511,-0.120089 0.10806,-0.240708 0.158869,-0.361809 l -0.06237,0.145651 c 0.03458,-0.07946 0.06824,-0.159185 0.100997,-0.239148 l -0.03863,0.0935 c 0.07903,-0.188375 0.15288,-0.377916 0.221588,-0.568443 0.076,-0.211006 0.145783,-0.423017 0.209422,-0.636244 0.01071,-0.03603 0.02125,-0.07201 0.03162,-0.108017 l -0.03162,0.108017 c 0.03111,-0.104245 0.06076,-0.20878 0.08894,-0.313577 l -0.05732,0.20556 c 0.03313,-0.115117 0.06446,-0.230503 0.09398,-0.346119 l -0.03666,0.140559 c 0.02818,-0.104791 0.05489,-0.209843 0.08013,-0.315128 l -0.04347,0.174569 c 0.02669,-0.104514 0.05191,-0.209215 0.07566,-0.314077 l -0.0322,0.139508 c 0.02432,-0.101432 0.04729,-0.20308 0.06889,-0.304919 l -0.0367,0.165411 c 0.02382,-0.105142 0.04617,-0.210444 0.06705,-0.315879 l -0.03035,0.150468 c 0.02111,-0.09951 0.04093,-0.1992 0.05945,-0.299049 l -0.0291,0.148581 C 38.386135,85.285217 36.21674,80.119852 31.6676,77.493405 25.950955,74.192898 18.64111,76.151566 15.340604,81.868211 Z M 133.34832,13.736421 c -6.60101,0 -11.95219,5.351178 -11.95219,11.952192 0,5.172109 3.28522,9.576916 7.88278,11.241554 0.0278,0.01079 0.0555,0.02066 0.0832,0.03044 l -0.0832,-0.03044 c 0.092,0.0333 0.18448,0.06551 0.2775,0.0966 l -0.19434,-0.06617 c 0.11294,0.03986 0.22659,0.07805 0.34092,0.114551 l -0.14658,-0.04838 c 0.0914,0.03054 0.1832,0.06001 0.27553,0.08838 l -0.12895,-0.04 c 0.0733,0.02341 0.14691,0.04612 0.22078,0.06813 l -0.0918,-0.02813 c 0.3408,0.104753 0.68809,0.194678 1.04112,0.269023 0.0541,0.01132 0.10819,0.02232 0.16243,0.03294 l -0.16243,-0.03294 c 0.09,0.01895 0.18031,0.03688 0.27101,0.05379 l -0.10858,-0.02085 c 0.0996,0.01951 0.1996,0.03778 0.29996,0.0548 l -0.19138,-0.03395 c 0.0993,0.01851 0.19897,0.03579 0.29909,0.05183 l -0.10771,-0.01788 c 0.10246,0.01737 0.2053,0.03343 0.30851,0.04816 l -0.2008,-0.03029 c 0.11573,0.01854 0.23201,0.03541 0.34882,0.0506 l -0.14802,-0.02031 c 0.088,0.01256 0.17619,0.02416 0.26466,0.03478 l -0.11664,-0.01447 c 0.11013,0.01432 0.22074,0.02714 0.3318,0.03845 l -0.21516,-0.02398 c 0.0933,0.01121 0.18698,0.02135 0.28088,0.03039 l -0.0657,-0.0064 c 0.0999,0.01017 0.20024,0.01911 0.3009,0.0268 l -0.23518,-0.02039 c 0.11859,0.01142 0.23759,0.0211 0.35699,0.02902 l -0.12181,-0.0086 c 0.0953,0.0073 0.19089,0.01345 0.2868,0.01848 l -0.16499,-0.0099 c 0.14277,0.0095 0.2861,0.01643 0.42994,0.02084 l -0.26495,-0.01098 c 0.21088,0.01107 0.42321,0.01668 0.63684,0.01668 l 0.32782,-0.0044 c 0.0154,-4.14e-4 0.0307,-8.57e-4 0.0461,-0.0013 l -0.0462,0.0013 c 0.10292,-0.0028 0.20559,-0.0069 0.30797,-0.01224 l -0.26176,0.01092 c 0.14531,-0.0045 0.28997,-0.01152 0.43393,-0.02113 l -0.17217,0.01021 c 0.0963,-0.0051 0.19231,-0.01125 0.28808,-0.01859 l -0.11591,0.0084 c 0.11741,-0.0078 0.23435,-0.01737 0.35081,-0.02857 l -0.2349,0.0202 c 0.10063,-0.0077 0.20098,-0.01665 0.30102,-0.02685 l -0.0661,0.0066 c 0.0955,-0.0092 0.19076,-0.01951 0.28563,-0.03093 l -0.21951,0.02429 c 0.10989,-0.0112 0.21941,-0.02388 0.32854,-0.03805 l -0.10903,0.01376 c 0.0869,-0.01047 0.17356,-0.02187 0.2599,-0.0342 l -0.15087,0.02043 c 0.11769,-0.01528 0.23493,-0.03227 0.35168,-0.05097 l -0.20081,0.03053 c 0.10344,-0.01477 0.20645,-0.03086 0.30901,-0.04825 l -0.1082,0.01772 c 0.1,-0.01601 0.19965,-0.03327 0.29893,-0.05177 l -0.19073,0.03404 c 0.1004,-0.01703 0.20038,-0.03531 0.29991,-0.05483 l -0.10918,0.02078 c 0.0907,-0.01691 0.18119,-0.03484 0.2713,-0.0538 l -0.16212,0.03301 c 0.38405,-0.07531 0.7615,-0.169011 1.13141,-0.280152 0.0234,-0.0067 0.047,-0.01386 0.0706,-0.0211 l -0.0706,0.0211 c 0.0672,-0.0202 0.13421,-0.04097 0.20093,-0.06232 l -0.13029,0.04121 c 0.0927,-0.02843 0.18497,-0.05797 0.27679,-0.0886 l -0.1465,0.04738 c 0.11444,-0.03661 0.22814,-0.0749 0.34106,-0.114839 l -0.19456,0.06746 c 0.0929,-0.03099 0.18531,-0.0631 0.27726,-0.09631 l -0.0827,0.02886 c 0.28585,-0.101103 0.5667,-0.212772 0.8421,-0.334539 0.0158,-0.0056 0.0308,-0.01222 0.0458,-0.0189 l -0.0458,0.0189 c 4.19578,-1.855173 7.1236,-6.054018 7.1236,-10.93669 0,-6.601014 -5.35118,-11.952192 -11.9522,-11.952192 z"
         id="Combined-Shape" />
    </g>
  </g>
</svg>
